<svg version="1.2" xmlns="http://www.w3.org/2000/svg" viewBox="0 0 32 28" width="32" height="28">
	<title>bluesky-svg</title>
	<style>
		.s0 { fill: #73ccf2 } 
	</style>
	<path class="s0" d="m7.2 2.3c3.6 2.7 7.4 8 8.8 10.9 1.4-2.9 5.2-8.2 8.8-10.9 2.5-1.9 6.7-3.3 6.7 1.3 0 1-0.6 7.9-0.9 9-1.1 3.9-5.1 4.9-8.7 4.3 6.3 1.1 7.8 4.6 4.4 8.1-6.5 6.6-9.4-1.7-10.1-3.8-0.1-0.4-0.2-0.6-0.2-0.4 0-0.2-0.1 0-0.2 0.4-0.7 2.1-3.6 10.4-10.1 3.8-3.4-3.5-1.9-7 4.4-8.1-3.6 0.6-7.6-0.4-8.7-4.3-0.3-1.1-0.9-8-0.9-9 0-4.6 4.2-3.2 6.7-1.3z"/>
</svg>