<svg version="1.2" xmlns="http://www.w3.org/2000/svg" viewBox="0 0 256 256" width="28" height="28">
	<title>reddit-svg</title>
	<style>
		.s0 { fill: #73ccf2 } 
	</style>
	<path fill-rule="evenodd" class="s0" d="m247.3 110.6q-0.7 3.2-2 6.3-1.4 3-3.3 5.7-1.9 2.7-4.3 5 0.5 2 1 4 0.4 2 0.7 4.1 0.3 2.1 0.5 4.1 0.1 2.1 0.1 4.2c0 21.9-12 42.4-33.9 57.5-21 14.5-48.7 22.5-78.1 22.5-29.4 0-57.1-8-78.1-22.5-21.9-15.1-33.9-35.6-33.9-57.5q0-2.1 0.1-4.2 0.2-2 0.5-4.1 0.3-2.1 0.7-4.1 0.5-2 1-4.1c-6.1-5.6-9.8-13.5-10.3-21.9-0.4-8.4 2.5-16.6 8.1-22.9 5.6-6.3 13.5-10.1 21.8-10.6 8.4-0.6 16.7 2.2 23 7.7 17.5-9.3 38.5-14.7 60.3-15.6l6.9-41.5q0.3-1.6 1.1-2.9 0.8-1.4 2.1-2.3 1.3-0.9 2.8-1.3 1.6-0.3 3.1-0.1l29.7 4.6c5.5-10.3 17.6-15.2 28.7-11.5 11.1 3.7 17.9 14.9 16.1 26.5-1.7 11.5-11.6 20.1-23.3 20.3-11.7 0.2-21.8-8-24-19.5l-21.8-3.4-5.2 31.2c20.9 1.2 40.9 6.6 57.7 15.5 4.6-4 10.3-6.6 16.4-7.5 6-0.8 12.2 0 17.8 2.6 5.6 2.5 10.3 6.6 13.6 11.8 3.3 5.2 5.1 11.2 5.1 17.3q0 3.3-0.7 6.6zm-174.1 27.5c0.8 2 2 3.7 3.5 5.2 1.5 1.5 3.2 2.7 5.2 3.5 1.9 0.8 4 1.2 6.1 1.2 6.5 0 12.3-3.9 14.8-9.9 2.5-6 1.1-12.8-3.5-17.4-4.6-4.6-11.4-6-17.4-3.5-6 2.5-9.9 8.3-9.9 14.8 0 2.1 0.4 4.2 1.2 6.1zm95.4 40.3c0.7-2 0.5-4.2-0.5-6.1-0.9-1.9-2.6-3.3-4.6-3.9-2.1-0.7-4.3-0.5-6.1 0.5-4.6 2.3-9.4 4.1-14.3 5.3-4.9 1.2-10 1.8-15.1 1.8-5.1 0-10.2-0.6-15.1-1.8-4.9-1.2-9.7-3-14.3-5.3-1.8-1-4-1.2-6-0.5-2.1 0.6-3.7 2.1-4.7 3.9-1 1.9-1.2 4.1-0.5 6.1 0.6 2.1 2 3.7 3.9 4.7 5.7 2.9 11.6 5.2 17.8 6.7 6.2 1.4 12.5 2.2 18.9 2.2 6.4 0 12.7-0.8 18.9-2.2 6.2-1.5 12.1-3.8 17.8-6.7 1.9-1 3.3-2.6 3.9-4.7zm5.5-31.6c2-0.8 3.7-2 5.2-3.5 1.5-1.5 2.7-3.2 3.5-5.2 0.8-1.9 1.2-4 1.2-6.1 0-6.5-3.9-12.3-9.9-14.8-6-2.5-12.8-1.1-17.4 3.5-4.6 4.6-6 11.4-3.5 17.4 2.5 6 8.3 9.9 14.8 9.9 2.1 0 4.2-0.4 6.1-1.2z"/>
</svg>